<?xml version="1.0" encoding="utf-8"?>
<!-- Generator: Adobe Illustrator 16.0.0, SVG Export Plug-In . SVG Version: 6.00 Build 0)  -->
<!DOCTYPE svg PUBLIC "-//W3C//DTD SVG 1.1//EN" "http://www.w3.org/Graphics/SVG/1.1/DTD/svg11.dtd">
<svg version="1.1" id="Layer_1" xmlns="http://www.w3.org/2000/svg" xmlns:xlink="http://www.w3.org/1999/xlink" x="0px" y="0px"
	 width="304px" height="60px" viewBox="0 0 304 60" enable-background="new 0 0 304 60" xml:space="preserve">
<g>
	<path d="M56.236,34.509c0,5.099,2.588,10.039,8.158,10.039c4.704,0,6.038-1.879,7.135-4.311h11.217
		c-1.412,4.938-5.883,13.098-18.59,13.098c-13.411,0-19.214-9.962-19.214-20.628c0-12.785,6.509-21.882,19.606-21.882
		c13.883,0,18.667,10.115,18.667,20.232c0,1.411,0,2.276-0.157,3.451L56.236,34.509L56.236,34.509z M71.923,27.607
		c-0.078-4.705-1.961-8.704-7.451-8.704c-5.333,0-7.528,3.686-7.999,8.704H71.923z"/>
	<path d="M87.998,22.039c0-3.449,0-7.216-0.078-10.273h10.899c0.236,1.096,0.394,3.92,0.473,5.174
		c1.334-2.507,4.628-6.117,11.765-6.117c8.157,0,13.412,5.571,13.412,15.768v25.804h-11.216V27.844c0-4.626-1.49-7.921-6.511-7.921
		c-4.783,0-7.45,2.667-7.45,9.883v22.586H87.998V22.039z"/>
	<path d="M126.582,11.765h6.271V0.785h11.217v10.979h8v8.472h-8v20.078c0,3.057,0.941,4.233,4.313,4.233c0.627,0,1.726,0,2.51-0.078
		v7.688c-2.194,0.782-5.254,0.782-7.529,0.782c-7.923,0-10.511-4.235-10.511-11.373V20.236h-6.271V11.765L126.582,11.765z"/>
	<path d="M163.993,34.509c0,5.099,2.588,10.039,8.157,10.039c4.703,0,6.035-1.879,7.136-4.311h11.217
		c-1.413,4.938-5.883,13.098-18.588,13.098c-13.412,0-19.217-9.962-19.217-20.628c0-12.785,6.511-21.882,19.606-21.882
		c13.881,0,18.666,10.115,18.666,20.232c0,1.411,0,2.276-0.156,3.451L163.993,34.509L163.993,34.509z M179.68,27.607
		c-0.078-4.705-1.962-8.704-7.451-8.704c-5.332,0-7.527,3.686-8,8.704H179.68z"/>
	<path d="M202.657,11.765c4.233,7.688,5.961,10.665,7.137,12.784h0.078c1.41-2.51,3.922-6.978,7.217-12.784h12.47l-13.175,19.372
		l13.097,21.257h-12.707c-3.604-6.902-5.881-11.296-7.135-13.648h-0.08c-1.021,2.119-3.843,7.373-7.136,13.648h-12.313l12.629-19.77
		l-12.551-20.861L202.657,11.765L202.657,11.765z"/>
	<polygon points="17.886,11.765 25.808,40.11 34.434,11.765 45.65,11.765 31.297,52.395 19.531,52.395 5.729,11.765 	"/>
	<polygon fill="#CE3F33" points="239.003,52.148 225.904,30.894 239.083,11.521 266.48,11.521 	"/>
	<polygon fill="#00A8E1" points="270.792,52.148 257.693,30.894 270.872,11.521 298.271,11.521 	"/>
</g>
</svg>
